<?xml version="1.0" standalone="no"?>
<!DOCTYPE svg PUBLIC "-//W3C//DTD SVG 1.1//EN" "http://www.w3.org/Graphics/SVG/1.1/DTD/svg11.dtd">
<svg xmlns="http://www.w3.org/2000/svg">
<metadata>Donkijote</metadata>
<defs>
<font id="icons" horiz-adv-x="1000" >
<font-face font-family="icons" font-weight="400" font-stretch="normal" units-per-em="1000" ascent="850" descent="-150" />
<missing-glyph horiz-adv-x="1000" />
<glyph glyph-name="donkijote-spanish" unicode="&#xe800;" d="M629 380c29-25 28-36 28-47 2-40-63-11-80 0-106 69-115 66-153 53l-1 0-2 0c-38 13-46 16-152-53-17-11-82-40-81 0 0 11 0 22 29 47 0 0-83-3-57-91 13-42 51-119 263-15 212-104 249-27 262 15 27 88-56 91-56 91z m-206-212c0 0-39-78-107-101 7-11 53-14 107-217 53 203 100 206 106 217-67 23-106 101-106 101z m422 469c0 68-127 125-302 143-17 41-65 70-120 70-56 0-103-29-121-70-174-18-302-75-302-143 0-1 0-1 0-2 0-1 0-2 0-3 0-82 189-149 423-149 75 0 145 7 206 19-24 12-38 28-38 45 0 37 64 67 144 67 38 0 72-7 98-18 8 12 12 24 12 36 0 1 0 1 0 2 0 1 0 2 0 3z" horiz-adv-x="845" />

<glyph glyph-name="repeat" unicode="&#xe801;" d="M149 334c21 0 29 3 31 37h-5l0 0h5c3 21 0 56 0 111v3c0 34 8 61 27 79 31 32 79 32 90 32h478l-114-116c-13-14-13-35 0-48 13-13 34-13 45 0l169 174c13 14 13 35 0 48l-169 177c-5 5-13 10-24 10-8 0-16-2-24-10-13-14-13-35 0-48l117-121h-478c-3 0-82 3-135-50-32-32-47-74-47-130 0-66 0-95 0-106l0 0v-8c2-34 31-34 34-34z m737-16l0 0v8c0 35-30 37-35 37-21 0-29-2-31-37h5l0 0h-5c-3-21 0-55 0-113 0-35-8-61-27-80-31-31-79-31-90-31h-478l114 119c13 13 13 34 0 47-13 13-34 13-45 0l-169-174c-13-13-13-35 0-48l169-177c5-5 13-10 24-10l0 0c8 0 16 2 24 10 13 14 13 35 0 48l-116 121h478c0 0 82-2 135 53 31 32 47 74 47 127 0 61 0 90 0 100z" horiz-adv-x="1000" />

<glyph glyph-name="shopping-cart" unicode="&#xe802;" d="M822-144c50 0 94 50 94 113 0 62-41 112-94 112-3 0-6 3-9 3l-491-3-25 160h603c3 0 9 3 13 12l78 466c0 3 0 12 0 12-3 3-7 7-10 7l-759 6-16 78c0 9-6 12-12 12l-172 7c-9 0-13-10-13-16 0-6 7-16 13-16l166-3 109-737-3-3c-28-19-44-57-44-97 0-63 41-113 94-113 50 0 94 50 94 113 0 25-7 47-19 69l-6 12h353l-13-12c-12-19-22-47-22-69 0-63 41-113 91-113z m-528 410l-69 443 741-9-75-434h-597z m115-294c0-44-31-81-68-81s-69 37-69 81c0 47 28 81 69 81s68-34 68-81z m410 78c37 0 69-37 69-81 0-44-32-82-69-82-38 0-69 38-69 82 0 47 31 81 69 81z" horiz-adv-x="1000" />

<glyph glyph-name="archive" unicode="&#xe803;" d="M1000 712c0 3-1 6-2 9-1 3-2 7-4 9l-103 120h-782l-103-120c-2-2-3-6-4-9-1-3-2-6-2-9v-179h50v-683h900v683h50v179z m-876 105h752l71-84h-894l71 84z m793-934h-834v650h834v-650z m50 684h-17-900-17v133h934v-133z m-267-100h-400v-167h400v167z m-33-134h-334v100h334v-100z m83-116h-500v-234h500v234z m-33-200h-434v166h434v-166z m-350 33h83c9 0 17 8 17 17s-8 16-17 16h-83c-9 0-17-7-17-16s8-17 17-17z m83 67h183c10 0 17 7 17 16s-7 17-17 17h-183c-9 0-17-7-17-17s8-16 17-16z m-83 0c4 0 8 2 12 5 3 3 4 7 4 11 0 5-1 9-4 12-7 6-18 6-24 0-3-3-5-7-5-12 0-4 2-8 5-11 3-3 7-5 12-5z m155-38c-3-4-5-8-5-12 0-5 2-9 5-12 3-3 7-5 11-5 5 0 9 2 12 5 3 3 5 7 5 12 0 4-2 8-5 12-6 6-17 6-23 0z m111 4h-16c-9 0-17-7-17-16s8-17 17-17h16c10 0 17 8 17 17s-7 16-17 16z" horiz-adv-x="1000" />

<glyph glyph-name="cable-line" unicode="&#xe804;" d="M42 158c8-65 41-158 158-227 57-33 114-51 169-51 80 0 141 37 187 63 45 27 71 41 101 35 46-8 87-31 122-67l59-61 122 118-59 61c-59 61-133 101-213 116-14 3-29 4-44 4-72 0-128-33-174-60-39-23-68-39-101-39-25 0-51 8-83 27-61 37-72 75-75 101-15 124 136 300 195 357l34-34 103 103-35 35 92 28-15 52-102-30 76 134-47 27-59-104v92h-55v-89l-35 36-103-103 27-27c-39-38-270-274-245-497z" horiz-adv-x="1000" />

<glyph glyph-name="flash" unicode="&#xe805;" d="M782 507c-3 6-9 10-15 10h-198l195 307c3 6 4 12 1 17-3 6-9 9-15 9h-267c-6 0-12-4-15-9l-250-500c-2-5-2-11 1-16 3-5 9-8 14-8h172l-187-444c-3-7 0-16 7-21 2-1 5-2 8-2 5 0 10 2 13 6l533 633c5 5 6 12 3 18z" horiz-adv-x="1000" />

<glyph glyph-name="home" unicode="&#xe806;" d="M136-71c0 0-1-22 21-22 27 0 252 0 252 0l0 207c0 0-3 34 30 34h104c40 0 37-34 37-34l0-206c0 0 213 0 246 0 28 0 27 28 27 28v381l-348 309-369-309c0 0 0-388 0-388z m-136 416c0 0 31-57 100 0l408 346 383-343c79-57 109 0 109 0l-492 445-508-448z" horiz-adv-x="1000" />

<glyph glyph-name="lamp-post" unicode="&#xe807;" d="M916 850h-198c-12 0-24-6-31-15h-50c-2 0-3 0-5 0-42-1-82-18-112-49-7-8-14-17-20-26-6 9-13 18-20 26-30 31-70 48-112 49-2 0-3 0-5 0h-50c-7 9-19 15-31 15h-198c-23 0-42-19-42-42v-53h14c0-37 41-66 94-66s94 29 94 66h79v29h40c1 0 2 0 4 0 60-2 107-51 107-111v-759h-77v-64h206v64h-77v759c0 60 47 109 108 111 1 0 2 0 3 0h40v-29h79c0-37 41-66 94-66 53 0 94 29 94 66h14v53c0 23-19 42-42 42z m-766-138c-39 0-71 20-71 43h142c0-23-32-43-71-43z m700 0c-39 0-71 20-71 43h142c0-23-32-43-71-43z" horiz-adv-x="1000" />

<glyph glyph-name="light-bulb" unicode="&#xe808;" d="M614-24v-29c0-23-17-43-39-46l-7-27c-4-14-17-24-32-24h-72c-15 0-28 10-32 24l-7 27c-22 3-39 23-39 46v29c0 16 12 29 28 29h172c15-1 28-13 28-29z m132 394c0-66-26-127-69-171-32-34-53-77-60-123-3-19-20-34-41-34h-152c-20 0-38 14-41 34-7 46-28 90-61 123-41 44-68 103-68 168-2 137 107 248 244 249 137 1 248-109 248-246z m-218 149c0 15-13 28-28 28-98 0-178-80-178-178 0-15 13-28 28-28 15 0 28 13 28 28 0 68 55 122 122 122 15 0 28 13 28 28z m-28 178c15 0 28 13 28 28v97c0 15-13 28-28 28s-28-12-28-28v-97c0-15 13-28 28-28z m-327-327c0 15-12 28-28 28h-97c-15 0-28-12-28-28 0-15 13-28 28-28h97c16 0 28 13 28 28z m779 28h-97c-15 0-28-12-28-28 0-15 12-28 28-28h97c15 0 28 13 28 28 0 15-12 28-28 28z m-722-259l-69-69c-11-11-11-28 0-39 5-6 12-8 19-8s14 2 20 8l69 69c11 11 11 28 0 39-11 11-29 11-39 0z m521 454c7 0 14 3 19 8l69 69c11 11 11 29 0 40-11 10-28 10-39 0l-69-69c-11-11-11-29 0-40 6-5 13-8 20-8z m-521 8c5-5 12-8 19-8s14 3 20 8c11 11 11 29 0 40l-69 69c-11 11-29 11-39 0-11-11-11-29 0-40l69-69z m540-462c-10 11-28 11-39 0-11-11-11-28 0-39l69-69c5-6 13-8 20-8s14 2 19 8c11 11 11 28 0 39l-69 69z" horiz-adv-x="1000" />

<glyph glyph-name="plug" unicode="&#xe809;" d="M995 800l-45 45c-7 7-18 7-24 0l-125-125c-19 19-50 18-69-1l-10-10c-25 23-57 36-91 36-36 0-69-14-94-39l-100-100c-3-3-5-7-5-11 0-5 2-9 5-12l296-296c3-3 7-5 12-5 4 0 8 2 11 5l100 100c51 51 52 133 3 185l10 10c19 19 20 50 1 69l125 125c7 7 7 17 0 24z m-273-206c-3-3-7-5-12-5-4 0-8 2-11 5l-46 46c-12 12-32 12-44 0l-46-46c-6-6-17-6-24 0-6 7-6 17 0 24l46 45c25 26 66 26 92 0l45-45c7-7 7-17 0-24z m124 12l-10-11-29 29-62 62 11 10c6 6 17 6 23 0l11-11v0l45-45c0 0 0 0 0 0l11-11c6-6 6-17 0-23z m-203-273c-19 20-50 20-69 0l-91-90-90 90 90 91c10 9 15 21 15 34 0 13-5 25-15 35-18 18-50 18-69 0l-90-91-34 34c-6 6-17 6-23 0l-123-122c-51-51-52-133-3-185l-10-11c-19-19-20-50-1-69l-125-125c-7-7-7-17 0-24l45-45c4-3 8-5 12-5 5 0 9 2 12 5l125 125c9-9 22-14 34-14 13 0 25 5 35 15l10 10c25-23 57-36 91-36 36 0 69 14 95 39l122 123c6 6 6 17 0 23l-34 34 91 90c19 19 19 50 0 69z m-205 136c6 6 16 6 22 0 3-3 4-7 4-11 0-4-1-8-4-11l-91-90-22 22 91 90z m-193-464c-7-7-17-7-24 0l-11 10c0 0 0 0 0 0l-45 46 0 0-11 10c-6 7-6 17 0 24l11 10 28-29 62-61-10-10z m250 112l-91-91c-3-4-8-5-12-5-4 0-9 1-12 5l-204 204c-7 7-7 17 0 24l91 91c6 6 17 6 23 0l205-205c6-6 6-17 0-23z m124 171l-91-91-21 22 90 91c6 6 16 6 22 0 6-6 6-16 0-22z m-341 22l-67-68 181-181 67 67-181 182z m103-171c-3-3-7-5-12-5-4 0-8 2-12 5l-68 69c-6 6-6 17 0 23 7 7 17 7 24 0l68-68c7-7 7-17 0-24z" horiz-adv-x="1000" />

<glyph glyph-name="archive-alt" unicode="&#xe80a;" d="M978 717h-956c-12 0-22-10-22-22v-128h1000v128c0 12-10 22-22 22z m-960 16h960c7 0 13 5 16 11 3 7 2 14-2 20l-101 86h-782l-105-86c-4-6-5-13-2-20 3-6 9-11 16-11z m265-716h434v166h-434v-166z m262 38c-3-3-7-5-12-5-4 0-8 2-11 5-3 3-5 7-5 12 0 4 2 8 5 12 6 6 17 6 23 0 3-4 5-8 5-12 0-5-2-9-5-12z m88-5h-16c-9 0-17 8-17 17s8 16 17 16h16c10 0 17-7 17-16s-7-17-17-17z m-183 100h183c10 0 17-7 17-17s-7-16-17-16h-183c-9 0-17 7-17 16s8 17 17 17z m-95-5c6 6 17 6 24 0 3-3 4-7 4-12 0-4-1-8-4-11-4-3-8-5-12-5-5 0-9 2-12 5-3 3-5 7-5 11 0 5 2 9 5 12z m12-62h83c9 0 17-7 17-16s-8-17-17-17h-83c-9 0-17 8-17 17s8 16 17 16z m-317-233h900v700h-900v-700z m250 617h400v-167h-400v167z m-50-250h500v-234h-500v234z" horiz-adv-x="1000" />

<glyph glyph-name="cables" unicode="&#xe80b;" d="M468 450c-25 31-59 82-138 108-78 27-116-45-144-73-29-29-125-146-175-381-39-186 36-241 91-250 65-10 112 5 142 26 14 10 17 44 17 44s21 193 93 307 114 146 123 155c10 11 14 34-9 64z m-46-47c-1 0-100-68-180-280-36-99-47-194-47-194 0-5-4-7-9-7 0 0 0 0-2 0-6 0-10 6-8 9 0 2 10 99 48 199 81 220 183 286 187 290 4 2 10 2 13-2 4-5 2-11-2-15z m417 205l-6 19-43-12-2 10c-121-25-311-125-330-137 10-9 19-19 27-28 42 23 206 108 311 129l0 7 43 12z m-114 134l-13 13-34-32-6 6c0 0-11-8-64-53-51-42-178-146-187-154 9-9 18-17 28-26 25 19 136 110 184 150 51 43 62 51 62 51l-6 7 36 38z m-94 63l-15 11-36-45-8 5c0 0-26-30-64-76-38-45-129-147-129-147l2-2c9-6 19-12 28-19 15 17 91 104 127 144 40 45 64 76 64 76l-7 5 38 48z m-262-245c23 29 70 87 95 129 44 72 53 108 53 110l-9 2 13 43-19 6-15-44-8 2c0 0-7-32-49-98-28-47-83-116-100-135 15-5 28-9 39-15z m-22-9l9-8c0 0 2 2 2 4-4 2-8 4-11 4z" horiz-adv-x="841" />

<glyph glyph-name="tubes" unicode="&#xe80c;" d="M1521 342c-32 0 120-116 120-248s-152-233-120-233h379c-32 0-182 100-182 233s152 248 182 248h-379z m419-236c0-102-81-188-96-179-55 26-94 94-94 173 0 79 39 145 92 173 17 9 98-64 98-167z m-47-258c-117 0-213 113-213 252s96 252 213 252 214-113 214-252-96-252-214-252z m0 483c-104 0-192-103-192-231s85-231 192-231 193 103 193 231-86 231-193 231z m0-440c-94 0-171 94-171 209s77 209 171 209 171-94 171-209-77-209-171-209z m0 397c-81 0-149-83-149-188s66-188 149-188 150 83 150 188-66 188-150 188z m0-430c-111 0-203 109-203 242s90 242 203 242c111 0 201-109 201-242s-90-242-201-242z m0 441c-87 0-160-90-160-199 0-109 70-199 160-199 88 0 160 90 160 199 0 109-72 199-160 199z m-1438 540c-105 0-188-106-188-239s83-239 188-239h1265c-105 0-188 107-188 239s83 239 188 239h-1265z m1308-233c0-102-81-188-96-179-56 26-94 94-94 173 0 79 38 145 92 173 15 9 98-64 98-167z m-333 159h-975c-6 0-11 4-11 10s5 11 11 11h975c6 0 10-4 10-11s-4-10-10-10z m286-417c-118 0-214 113-214 252s96 250 214 250 214-113 214-252-97-250-214-250z m0 481c-105 0-192-103-192-231s85-231 192-231 192 103 192 231-87 231-192 231z m0-438c-94 0-171 94-171 209s77 209 171 209 171-94 171-209-77-209-171-209z m0 397c-81 0-150-83-150-188s67-188 150-188 149 83 149 188-68 188-149 188z m0-429c-111 0-203 109-203 241s90 242 203 242 203-109 203-242-92-241-203-241z m0 440c-88 0-160-90-160-199s70-199 160-199 160 90 160 199-73 199-160 199z m-1517-457c-105 0-188-107-188-240s83-239 188-239h1265c-105 0-188 107-188 239s83 240 188 240h-1265z m1307-236c0-102-81-188-96-179-55 26-94 94-94 173 0 79 39 145 92 173 15 9 98-64 98-167z m-333 159h-974c-7 0-11 4-11 10s4 11 11 11h974c7 0 11-4 11-11s-4-10-11-10z m286-417c-117 0-213 113-213 252s96 252 213 252 214-113 214-252-96-252-214-252z m0 483c-104 0-192-103-192-231s86-231 192-231 193 103 193 231-88 231-193 231z m0-440c-94 0-170 94-170 209s76 209 170 209 171-94 171-209-77-209-171-209z m0 397c-81 0-149-83-149-188s66-188 149-188 150 83 150 188-68 188-150 188z m0-430c-111 0-203 109-203 242s90 242 203 242 203-109 203-242-91-242-203-242z m0 441c-87 0-160-90-160-199 0-109 71-199 160-199s161 90 161 199c-2 109-73 199-161 199z" horiz-adv-x="2109" />

<glyph glyph-name="donkijote-british" unicode="&#xe80d;" d="M442 295c25-21 24-30 24-40 2-33-53-9-67 0-89 59-96 56-128 45l-2 0-1 0c-32 11-39 14-128-45-14-9-69-33-68 0 1 10 0 19 24 40 0 0-69-3-47-76 11-36 42-100 220-13 178-87 210-23 221 13 22 73-48 76-48 76z m-173-178c0 0 33-66 90-85-6-9-45-12-90-182v267z m0 0c0 0-32-66-89-85 6-9 45-12 89-182v267z m278 418c0 28-30 54-80 72 1-19 3-40 6-63l1-3-2-1c-1-2-33-50-200-50-6 0-10 3-10 8 0 0 0 0 0 0 0 4 4 7 10 7 0 0 0 0 0 0 7 0 15 1 21 1 118 3 153 32 159 39-3 26-5 49-6 69-5 91 11 132 20 157 8 21 10 25-10 39-38 29-119 37-162 39-8 0-14 1-19 1-6 0-10 0-10 0v0c-48 0-142-3-184-34-50-38 18-29 7-206-54-19-88-45-88-75 0-56 123-102 274-102 151 0 273 46 273 102z m-451 239c2 4 8 6 14 4 0 0 9-3 24-7 27-7 75-17 133-18 8 0 17 0 26 1 36 1 74 6 113 17 7 2 14 5 21 7 5 2 12 0 14-4 2-3 0-8-5-10-49-17-98-25-143-26-6 0-12-1-18-1-3 0-6 0-8 1-93 1-162 25-166 26-5 2-7 7-5 10z" horiz-adv-x="547" />

<glyph glyph-name="logo" unicode="&#xe80e;" d="M500 848c-275 0-499-223-499-499 0-275 224-499 499-499s499 224 499 499c0 276-223 499-499 499m2-926c-239 0-432 194-432 432 0 239 193 433 432 433s433-194 433-433c0-238-194-432-433-432m-14 210v124h-170v32h170v118h-175v43h49v128c-119-2-216-100-216-219v-6c0-121 98-219 219-219h123z m224 445h-317v-128h342v-43h-217v-118l129 1h60c78 0 140 63 140 140v11c-1 75-62 137-137 137m-192-321h125v-124h-125z" horiz-adv-x="1002" />

<glyph glyph-name="logo-texto" unicode="&#xe80f;" d="M659 795c0 10 2 16 8 22 7 4 13 7 19 7l220 0c2 0 4 0 6-3 2-2 2-4 4-6 2-4 2-6 2-12 0-4 0-10 0-16 0-6 0-12 0-17 0-4-2-8-2-10-2-2-2-4-4-6-2-2-4-2-6-2l-157 0 0-108 135 0c2 0 4 0 6-2 2-2 4-4 4-6 2-2 2-6 2-10 0-5 0-11 0-17 0-6 0-12 0-16 0-4-2-8-2-10-2-2-2-4-4-6-2-2-4-2-6-2l-135 0 0-125 159 0c2 0 4 0 6-2 2-2 4-4 4-6 2-2 2-6 2-10 0-4 0-11 0-17 0-6 0-12 0-16 0-4-2-8-2-10-2-2-2-4-4-6-2-2-4-2-6-2l-222 0c-8 0-15 2-19 6-6 4-8 12-8 22l0 386z m-296 14c0 2 0 4 2 6 2 2 4 4 9 4 4 2 8 2 14 2 6 0 12 3 22 3 8 0 17 0 23-3 6 0 10-2 14-2 4-2 6-2 8-4 2-2 2-4 2-6l0-357 139 0c2 0 4 0 6-2 2-2 4-4 4-6 2-2 2-6 2-12 0-4 0-11 0-17 0-6 0-12 0-16 0-4-2-8-2-12-2-4-2-6-4-6-6 0-6 0-10 0l-202 0c-8 0-14 2-19 6-6 4-8 12-8 22l0 400z m-87-428c-2 0-5 0-7 0l-222 0c-8 0-14 2-18 6-4 4-9 10-9 20l0 386c0 10 2 16 9 22 6 4 12 6 18 6l220 0c2 0 4 0 7-2 2-2 2-4 4-6 2-2 2-6 2-10 0-4 0-10 0-16 0-6 0-12 0-17 0-4-2-8-2-10-2-2-2-4-4-6-3-2-5-2-7-2l-157 0 0-108 135 0c2 0 4 0 6-2 2-2 4-4 4-6 2-2 2-6 2-10 0-5 0-11 0-17 0-6 0-12 0-16 0-4-2-8-2-10-2-2-2-4-4-6-2-2-4-2-6-2l-135 0 0-125 159 0c2 0 5 0 7-2 2-2 4-4 4-6 2-2 2-6 2-10 0-4 0-11 0-17 0-6 0-12 0-16 0-4-2-8-2-10 0-4-2-6-4-8m810 6c-25 10-45 22-64 43-16 18-30 40-38 69-8 29-15 61-15 98 0 37 5 71 15 100 10 29 24 53 43 73 18 21 38 35 65 45 24 11 53 15 84 15 12 0 24 0 34-2 12-2 23-4 31-9 10-4 18-6 26-12 9-4 13-8 17-10 4-4 6-6 6-8 2-2 2-4 2-8 0-4 2-6 2-13 0-4 0-10 0-16 0-6 0-12 0-18 0-4-2-8-2-13-2-2-2-6-4-6-2 2-2 0-4 0-4 0-8 2-13 6-6 5-12 9-20 15-8 4-18 10-31 14-12 4-24 6-40 6-19 0-33-4-47-10-15-8-27-18-35-31-10-14-16-28-22-49-5-18-9-40-9-63 0-26 2-49 9-67 6-19 12-35 22-47 10-12 22-23 37-27 14-6 30-8 47-8 16 0 30 2 40 6 13 4 23 8 31 12 8 5 14 9 21 13 6 4 10 6 12 6 2 0 4 0 6-2 2 0 2-2 4-6 0-2 2-6 2-13 0-4 0-12 0-20 0-6 0-10 0-14 0-4 0-8-2-10 0-2-2-7-2-9-2-2-2-4-6-6-2-2-8-6-14-10-9-4-17-8-27-12-10-4-22-6-35-10-14-2-28-4-43-4-32-3-59 4-83 12m369-4c-4 2-6 2-8 4-2 2-2 4-2 6l0 357-110 0c-2 0-4 0-6 2-2 2-2 4-4 6-3 2-3 6-3 12 0 5 0 11 0 17 0 6 0 12 0 18 0 4 3 8 3 12 2 2 2 4 4 7 2 2 4 2 6 2l312 0c2 0 4 0 6-2 2-3 4-5 4-7 2-2 2-6 2-12 0-4 0-10 0-18 0-6 0-12 0-17 0-4-2-8-2-12-2-2-2-4-4-6-2-2-4-2-6-2l-110 0 0-357c0-2 0-4-2-6-2-2-4-4-8-4-5-2-9-2-15-2-6 0-12-2-22-2-8 0-16 0-23 2-4 0-10 0-12 2m584 18c-2 4-4 10-6 18l-37 88c-4 10-8 21-14 29-4 8-11 16-15 22-6 6-10 12-16 17-6 4-12 8-18 12 14 4 26 10 36 16 11 6 21 16 27 25 8 10 12 20 16 32 4 12 6 27 6 41 0 18-2 33-8 47-6 14-12 24-22 35-10 10-23 18-37 24-14 6-31 10-49 12-6 0-12 2-20 2-8 0-17 0-29 0l-114 0c-8 0-14-2-19-6-6-4-8-12-8-22l0-402c0-2 0-4 2-6 2-2 4-4 8-4 5-2 9-2 15-2 6 0 12-2 22-2 8 0 17 0 23 2 6 0 10 2 14 2 4 2 6 2 8 4 2 2 2 4 2 6l0 169 29 0c10 0 18-2 24-4 8-2 15-8 19-12 6-6 10-12 14-23 4-8 10-18 14-30l39-98c0-2 2-4 4-6 2-2 4-4 6-4 4-2 8-2 14-2 7 0 15 0 23 0 12 0 20 0 26 0 7 0 13 2 15 2 4 2 6 2 6 4 0 2 2 4 2 6 0 2 0 4-2 8m-119 265c-4-8-8-14-14-20-6-6-14-10-24-12-11-2-21-4-33-4l-45 0 0 126 41 0c10 0 18 0 24-2 7 0 11-2 17-2 14-4 26-10 32-20 7-11 11-23 11-37-4-12-7-20-9-29m564 41c-8 29-23 51-39 70-16 18-39 32-65 40-25 9-53 13-88 13-35 0-65-6-92-17-26-10-49-26-67-47-19-20-31-45-41-73-8-29-14-61-14-96 0-39 4-73 12-102 8-29 20-51 39-71 16-19 38-33 63-41 26-8 55-15 90-15 34 0 65 7 92 17 26 10 48 26 67 47 18 20 30 45 41 73 8 29 14 61 14 98 2 41-2 76-12 104m-86-165c-4-18-10-35-18-49-9-14-21-25-37-33-14-8-33-12-55-12-23 0-41 4-55 10-15 8-27 19-35 31-8 14-14 30-18 49-4 18-6 41-6 65 0 21 2 41 6 59 4 19 10 35 18 49 8 15 20 25 37 33 14 8 32 12 55 12 22 0 41-4 55-10 14-8 26-18 35-31 8-14 14-30 18-49 4-18 6-40 6-63 0-22-2-43-6-61m-373-510c0-27-5-51-13-72-8-20-20-39-34-53-17-14-35-26-58-33-22-8-49-12-77-12-29 0-53 4-74 10-22 7-40 17-55 31-14 14-26 31-34 53-9 20-13 45-13 74v265c0 2 0 4 2 6 2 2 5 4 9 4 4 2 8 2 14 2 6 0 12 2 22 2 8 0 17 0 21-2 6 0 10-2 14-2 4-2 6-2 8-4-2-2-2-4-2-6v-259c0-19 2-33 6-45 4-12 10-23 19-33 8-8 18-14 28-18 10-4 25-6 37-6 14 0 26 2 37 6 10 4 20 10 28 18 8 8 15 18 19 31 4 12 6 26 6 41v265c0 2 0 4 2 6 2 2 4 4 6 4 4 2 8 2 14 2 6 0 12 2 23 2 8 0 16 0 20-2 6 0 10-2 14-2 4-2 6-2 6-4 2-2 2-4 2-6v-263z m397-111c0-4 0-8-2-10 0-2-2-6-2-8-2-2-2-4-6-6-2-2-8-6-14-10-8-4-16-8-27-13-10-4-22-6-34-10-12-2-27-4-43-4-31 0-57 4-82 14-24 11-45 23-61 41-16 19-31 41-39 70-8 26-14 59-14 96 0 36 4 69 14 100 10 28 25 53 41 73 18 21 39 35 63 45 25 10 53 14 82 14 12 0 24 0 35-4 12-2 22-4 30-8 11-4 19-6 27-12 8-4 12-8 16-10 2-2 6-7 6-9 2-2 2-4 2-8 0-4 2-6 2-10 0-4 0-10 0-16 0-6 0-12 0-17 0-4-2-8-2-12-2-2-2-4-4-6-2-2-4-2-6-2-4 0-8 2-12 6-6 4-12 8-21 12-8 4-18 11-28 13-12 4-25 6-41 6-18 0-33-4-47-10-14-7-24-17-35-31-10-12-16-29-22-47-4-18-8-41-8-63 0-27 2-49 8-68 6-18 12-34 22-47 11-12 23-20 35-26 14-6 31-8 47-8 16 0 29 2 41 6 12 4 22 8 31 12 8 4 14 8 20 12 6 4 10 6 12 6 2 0 4 0 6-2 2 0 2-2 4-6 0-2 2-6 2-12 0-4 0-12 0-20 4-2 4-7 4-11m360 333c0-4-2-8-2-10-2-2-2-4-4-6-2-2-5-2-7-2h-110v-353c0-2 0-4-2-7-2-2-4-4-8-4-4-2-8-2-14-2-6 0-13-2-23-2-8 0-16 0-22 2-6 0-10 2-14 2-5 2-7 2-9 4-2 3-2 5-2 7v351h-110c-2 0-4 0-6 2-2 2-2 4-4 6-2 2-2 6-2 10 0 4 0 10 0 16 0 7 0 13 0 17 0 4 2 8 2 12 2 2 2 4 4 6 2 2 4 2 6 2h310c2 0 4 0 6-2 3-2 5-4 5-6 2-2 2-6 2-12 0-4 0-10 0-17 6-4 6-10 4-14m751-314c-8-19-21-33-35-43-14-12-33-21-51-27-20-6-41-8-63-8-15 0-29 2-43 4-12 2-25 6-35 8-10 5-18 9-24 11-6 4-13 8-15 10-2 2-4 8-6 12-2 6-2 14-2 25 0 6 0 12 0 18 0 4 2 8 2 12 2 2 2 4 4 6 2 2 4 2 6 2 5 0 9-2 15-6 6-4 12-8 22-12 8-4 21-8 33-12 12-4 26-6 43-6 10 0 20 2 28 4 8 2 17 6 23 10 6 4 10 10 14 18 4 6 4 15 4 23 0 10-2 18-8 26-6 6-12 15-20 19-9 6-19 10-31 16-10 4-23 10-35 16-12 6-22 13-34 19-11 6-21 14-31 24-8 10-16 21-20 35-7 12-9 28-9 47 0 20 4 39 13 55 8 16 18 29 30 39 12 10 29 18 47 24 19 6 37 8 57 8 10 0 21 0 31-2 10-2 20-4 28-6 9-2 17-6 25-8 6-4 12-6 14-8 2-2 4-4 4-6 0-2 2-4 2-6 0-2 0-6 2-11 0-4 0-8 0-14 0-6 0-12 0-16 0-4 0-8-2-10 0-2-2-4-4-6-2-3-4-3-6-3-2 0-6 3-12 5-6 4-12 6-20 10-9 4-17 6-27 10-10 4-22 4-35 4-10 0-18-2-24-4-8-2-14-6-19-10-4-4-8-10-10-15-2-6-4-12-4-18 0-10 2-18 8-24 6-9 13-15 21-19 8-6 18-10 30-16 13-4 23-10 35-16 12-7 22-13 35-19 12-6 20-14 30-24 8-10 17-21 21-35 6-12 8-29 8-45 4-29 0-49-10-65m-2835-51c-2 4-4 10-6 18l-37 86c-4 10-8 20-14 28-4 9-10 17-14 23-7 6-11 12-17 16-6 4-12 8-18 12 14 5 26 11 37 17 10 6 20 14 26 24 8 11 12 21 16 33 5 12 7 24 7 41 0 16-2 32-9 47-6 14-12 24-22 34-10 11-22 19-37 25-14 6-30 10-47 12-6 0-12 2-20 2-8 0-16 0-29 0h-114c-8 0-14-2-18-6-4-4-8-12-8-22v-398c0-2 0-5 2-7 2-2 4-4 6-4 4-2 8-2 14-2 6 0 12-2 22-2 9 0 17 0 23 2 6 0 10 2 14 2 4 2 6 2 8 4 2 2 2 5 2 7v167h29c10 0 18-2 24-4 9-2 15-8 19-12 6-6 10-13 14-23 4-8 8-18 14-28l39-98c0-2 2-4 4-7 2-2 4-4 6-4 4-2 8-2 15-2 6 0 12 0 22 0 12 0 20 0 27 0 6 0 12 2 14 2 4 2 6 2 6 4 0 3 2 5 2 7 0 0 0 2-2 6m-118 263c-4-8-9-14-15-20-6-6-14-11-24-13-10-2-21-4-33-4h-45v123h41c10 0 18 0 25-2 6 0 10-2 16-2 14-4 26-10 33-21 6-10 10-22 10-36-2-9-4-17-8-25m998 35c-11 26-25 49-43 67-19 18-41 31-70 41-26 8-61 14-100 14h-112c-8 0-14-2-18-6-4-4-8-12-8-22v-382c0-10 2-16 8-23 6-4 12-6 18-6h104c39 0 72 4 100 13 29 8 53 22 72 40 20 19 34 41 45 70 10 28 16 63 16 104 4 33-2 63-12 90m-86-161c-6-19-14-35-25-47-10-13-24-23-42-29-17-6-37-10-62-10h-47v298h45c27 0 49-4 66-10 16-9 30-19 40-31 11-12 19-29 23-47 4-18 8-37 8-57 2-27 0-49-6-67m-351 165c-8 28-23 51-39 69-16 19-39 33-63 41-25 8-55 12-88 12-35 0-65-6-92-16-26-10-49-27-65-45-18-20-31-45-41-71-8-29-14-60-14-96 0-39 4-72 12-100 8-29 20-51 39-70 16-18 39-32 63-41 25-8 55-14 90-14 35 0 65 6 92 16 26 11 49 27 65 45 18 21 31 45 41 74 8 29 14 61 14 98-2 39-6 71-14 98m-86-161c-4-19-10-35-18-49-8-15-21-25-35-33-14-8-33-12-55-12-22 0-41 4-55 10-14 6-27 18-35 30-8 15-14 31-18 50-4 18-6 40-6 65 0 20 2 41 6 59 4 18 10 35 18 49 8 14 21 25 35 33 14 8 33 12 55 12 22 0 41-4 55-10 14-8 27-19 35-31 8-14 14-28 18-49 4-18 6-39 6-63-2-25-4-43-6-61m-757 191c-4 15-12 27-22 37-11 10-21 21-35 27-14 6-27 12-41 14-12 2-24 4-35 4-10 0-18 2-30 2h-100c-8 0-17-2-23-8-6-6-8-12-8-25v-393c0-3 0-5 2-7 2-2 4-4 6-4 4-2 8-2 15-2 6 0 12-2 22-2 8 0 16 0 22 2 7 0 11 2 15 2 4 2 6 2 8 4 2 2 2 4 2 7v138h37c28 0 55 4 75 11 21 6 39 16 53 30 15 12 27 29 33 47 8 19 12 41 12 65-2 21-4 37-8 51m-92-85c-4-10-8-19-14-25-6-6-14-12-25-16-10-4-22-6-36-6h-41v149h39c10 0 18 0 26-2 8-2 16-4 25-8 8-4 14-13 20-23 6-10 8-22 8-39 4-10 2-20-2-30m2992 55c-8 28-22 51-39 69-16 19-39 33-63 41-25 8-55 12-88 12-34 0-65-6-92-16-26-10-49-27-65-45-18-20-31-45-41-71-8-29-14-60-14-96 0-39 4-72 12-100 8-29 21-51 39-70 16-18 39-32 63-41 25-8 55-14 90-14 35 0 65 6 92 16 26 11 49 27 65 45 19 21 31 45 41 74 8 29 14 61 14 98-2 39-6 71-14 98m-86-161c-4-19-10-35-18-49-8-15-20-25-35-33s-32-12-55-12c-22 0-41 4-55 10-14 6-27 18-35 30-8 15-14 31-18 50-4 18-6 40-6 65 0 20 2 41 6 59 4 18 10 35 18 49 8 14 21 25 35 33 14 8 33 12 55 12 23 0 39-4 55-10 15-8 27-19 35-31 8-14 14-28 18-49 4-18 6-39 6-63 0-25-2-43-6-61" horiz-adv-x="3549" />

<glyph glyph-name="ep" unicode="&#xe810;" d="M759-125v264h-365v69h362v250h-371v91h105v274c-255-5-460-212-460-467v-12c0-259 209-469 467-469h262z m473 948h-674v-274h727v-91h-460v-250l273 2h128c166 0 298 134 298 298v23c0 160-130 292-292 292m-407-684h264v-264h-264z" horiz-adv-x="1556" />

<glyph glyph-name="bree" unicode="&#xe811;" d="M1415 635c-361 77-746 61-1007-62-85-38-139-77-193-123l-15-15c0 38 46 77 62 84 7 16 123 131 461 177 154 16 516 16 692-61m-1200-108c-153-162-146-346 108-469 77-39 162-62 269-100l31-8c-77 0-161 23-192 31-23 15-277 69-354 223-46 77-31 246 138 323m162-539c338-84 731-100 1023 8 92 31 146 69 231 116l15 7c-7-38-61-77-84-84-16-8-162-124-500-154-162 0-516 15-685 107m1346 416c-192 154-523 254-892 231-116-8-208-31-323-54l-39-8c54 31 146 46 177 54 31 0 277 69 600 8 154-31 446-123 477-231m-323 338c-361 70-746 62-1000-61-85-39-138-77-192-123l-16-16c0 39 47 77 62 85s131 123 469 169c139 23 508 23 677-54z m0 0c-361 70-746 62-1000-61-85-39-138-77-192-123l-16-16c0 39 47 77 62 85s131 123 469 169c139 23 508 23 677-54z m-1200-115c-154-162-146-346 108-469 77-39 161-62 269-100l38-8c-76 0-161 23-192 31-38 15-277 69-369 223-39 85-31 246 146 323z m0 0c-154-162-146-346 108-469 77-39 161-62 269-100l38-8c-76 0-161 23-192 31-38 15-277 69-369 223-39 85-31 246 146 323z m177-538c338-85 731-101 1023 7 92 31 146 69 231 116l15 7c-7-38-61-77-84-84-16-8-162-123-500-154-177 7-539 23-685 108z m0 0c338-85 731-101 1023 7 92 31 146 69 231 116l15 7c-7-38-61-77-84-84-16-8-162-123-500-154-177 7-539 23-685 108z m1338 415c-200 146-523 254-892 223-108-8-200-15-315-46l-39-8c46 31 139 46 170 54 30 8 276 69 600 8 146-23 438-123 476-231z m0 0c-200 146-523 254-892 223-108-8-200-15-315-46l-39-8c46 31 139 46 170 54 30 8 276 69 600 8 146-23 438-123 476-231z m147 108h-185c-15 0-23-8-23-8v-423c0-8 8-8 8-8l207 23c8 0 8 8 8 8v400c0 0-8 8-15 8m307-100h-215c-8 0-23 7-23 7v77c0 8 8 8 23 8h369c277 0 292-246 100-269 54 0 108-23 108-54v-85c0-7-8-7-8-7l-231-24c-7 0-15 8-15 8v62c0 30-54 54-115 54h-208c-15 0-23 7-23 7v93c0 7 8 7 23 7h223c131-7 131 116-8 116m1377 0h-607v92c0 8 7 8 15 8h485c61 0 115-23 115-54v-39c8-7 0-7-8-7m0-239h-600v-92c0-8 8-8 16-8h484c69 0 116 23 116 54v46c0 0-8 0-16 0m-46 162h-561v-85h561c8 0 15 8 15 8v69c0 8-7 8-15 8m-623 177h-185c-15 0-23-8-23-8v-423c0-8 8-8 8-8l208 23c7 0 7 8 7 8v400c8 0 0 8-15 8m1677-100h-592v92c0 8 7 8 15 8h485c61 0 115-23 115-54v-39c0-7-8-7-23-7m0-239h-592v-92c0-8 7-8 15-8h485c69 0 115 23 115 54v46c0 0-8 0-23 0m-31 162h-561v-85h561c8 0 16 8 16 8v69c-8 8-8 8-16 8m-631 177h-184c-16 0-23-8-23-8v-423c0-8 7-8 7-8l208 23c8 0 8 8 8 8v400c7 0 0 8-16 8m-2192-470h39v-138h146v-23h-185v161z m377 0v-154h-38v154h38z m438-154c-15-7-53-7-100-7-53 0-92 7-123 15-30 8-46 31-46 62 0 46 69 84 185 84 38 0 69-7 84-7l-7-16c-8 8-31 8-69 8-77 0-139-23-139-62 0-38 54-61 131-61 31 0 46 8 54 8v46h-62v15h116l-24-85z m216 154v-69h161v62h31v-154h-38v77h-162v-77h-46v154l54 7 0 0z m446-23h-100v23h246v-15h-100v-139h-38c-8-7-8 131-8 131z m331 23v-154h-46v154h46z m177-161v154h46l108-77c23-16 38-31 61-46-8 15-8 38-8 61v62h31v-154h-38l-108 77c-23 15-46 31-62 54v-131c8 0-30 0-30 0z m684 7c-15-7-54-7-100-7-54 0-92 7-123 15-31 8-46 31-46 62 0 46 69 84 185 84 38 0 69-7 84-7l-7-16c-16 8-39 8-77 8-77 0-139-23-139-62 0-38 54-61 131-61 31 0 46 8 54 8v46h-62v15h116l-16-85 0 0z m-2846 462v85c0 38-77 77-169 77h-700c-8 0-23-8-23-8v-423c0-8 8-8 23-8h708c92 0 169 31 169 77v85c0 30-54 54-123 54 69 7 115 30 115 61z m-315-177h-339v77c0 8 8 8 16 8h323c107 0 107-85 0-85z m0 169h-339v70c0 7 8 7 16 7h323c107 0 107-77 0-77z" horiz-adv-x="4615" />

<glyph glyph-name="duralux" unicode="&#xe812;" d="M685 796v-769c0-69-54-123-116-123h-354c-115 7-176 69-176 200v254c0 123 61 184 176 192h285c8 0 15-8 15-15v-100c0-8-7-16-15-16h-261c-54 0-77-23-77-92v-200c0-69 30-100 100-100h292c8 0 15 8 15 15v754c0 8 8 16 16 16h92c0 0 8-8 8-16z m646-438v-316c0-7-8-23-16-23h-300c-53 0-76 23-76 85v246h-116v-269c0-131 62-200 177-200h331c69 0 115 54 115 131v338h-115v8z m269-462v462c0 123 62 192 177 192h515v-123h-500c-53 0-77-23-77-77v-446l-115-8z m762 523v131h246c115 0 177-69 177-192v-331c0-69-54-123-116-123h-369c-108 0-161 54-161 161v85c0 108 53 169 153 169h308v-130h-261c-54 0-85-24-85-77s23-77 77-77h331v284c0 70-23 108-77 108h-223z m-916 0v108c0 8-7 23-15 23h-77c-8 0-15-8-15-23v-108h107z m-507 0v108c0 8-8 23-16 23h-77c-7 0-15-8-15-23v-108h108z m1976 393h116v-916h-116c0 0 0 916 0 916z m370-262v-438c0-54 23-85 77-85h315v523h115v-654h-453c-116 0-177 69-177 200v454c7 0 123 0 123 0z m607 0h154l185-231 184 231h154l-261-331 269-331h-154l-531 662z m154-654h-154l231 285 77-92c0-8-154-193-154-193z" horiz-adv-x="4615" />

<glyph glyph-name="ecoforce" unicode="&#xe813;" d="M1839-81v823h307v-77h-246v-284h254v-77h-246v-369h-69z m392 423c0 54 8 108 23 162 15 46 38 100 77 138 31 39 61 70 100 85 38 15 77 31 123 31s85-8 123-31c38-15 69-46 100-92 31-46 54-85 69-131 16-46 23-108 23-162 0-53-7-107-15-161-15-46-31-92-62-131-30-46-61-77-107-108-39-23-85-38-131-38-85 0-169 46-223 123-62 85-100 192-100 315m69 0c0-100 23-184 77-253 54-70 108-101 185-101 69 0 130 31 177 108 46 69 76 154 76 254 0 92-23 169-76 246-54 69-116 100-185 100-31 0-54-7-85-15s-54-31-77-54c-30-31-53-77-69-123-15-69-23-115-23-162m708 323v-738h-62v815h169c39 0 62 0 85-15 23-8 39-15 62-38 23-24 38-54 61-93 16-38 16-77 16-123 0-61-16-115-39-161-31-47-61-70-108-77l154-324h-77l-184 401h61c39 0 69 15 100 46 23 31 39 69 39 115 0 31-8 54-8 77s-15 46-31 62c-7 15-31 23-38 30-16 8-46 8-93 8-15 15-107 15-107 15l0 0z m923-138c-31 46-62 85-92 108-31 23-77 38-116 38-69 0-131-31-177-108-46-69-77-146-77-246s23-184 77-254c46-69 108-107 177-107 39 0 85 15 116 38 30 23 61 62 92 108h77c-31-69-62-123-116-162-46-38-100-54-161-54-92 0-169 47-231 124-61 77-92 184-92 315 0 54 7 108 23 162 15 46 38 100 77 138 31 38 61 69 100 92 38 16 77 31 123 31 61 0 115-15 169-61 54-47 85-100 115-170 0 0-84 8-84 8z m231-154h261v-77h-261v-300h261v-77h-323v823h323v-77h-261v-292z m-4123-454h353v123h-261v254h261v123h-261v246h261v124h-353v-870z m1692 608c-16 54-39 108-77 146-31 39-62 77-108 92-38 16-77 31-123 31-61 0-123-15-177-61-15-16-38-39-61-62l-16-15c-54-77-92-169-107-269-16-108-62-193-123-270l-8-15c-16-15-31-31-46-46-31-16-70-31-108-31-62 0-123 31-169 100-39 62-62 146-62 238 0 85 23 162 69 224 47 61 100 92 170 92 38 0 77-16 107-31 31-15 62-54 85-108l8-7h107l-7 30c-31 77-70 131-123 177s-108 62-177 62c-46 0-85-8-123-31-39-8-77-38-108-77-31-46-62-92-77-146-15-61-15-115-15-177 0-131 30-238 100-323s146-131 238-131c62 0 123 16 169 62 16 7 23 15 39 31 77 77 131 192 154 323 15 107 61 192 115 269l8 8c7 0 7 7 7 15v-8c0-15-7-15-7-15s7-15 15-15c15 0 23-8 31-16 8-8 15-23 15-31s8 0 16 0c7 0 7-15 0-30-8-8-16 0-16-16s-7-15-7-23 7-8 7-46 31-38 39-46c7 0 7-39 7-54-15-15-7-54-15-69s0-16-8-46c-7-31-7-54-7-54s23-31 23-31-8 15-8 31 8 15 8 15c7 8 0 23 7 23s16 0 16 8 15 0 15 15c0 16 8 0 8 8 8 8 8 0 15 8s23 23 31 30c8 8 8 0 15 8 8 8 16 0 23 8 8 0 24 46 31 46 0 8 8 8 16 15 7 0 15 39 7 39-7 0-7 0-7 15-8 16-16-7-23 16-8 15-16 7-16 15s0 15-8 15c-7 0-7 16-7 23-8 16-16 16-23 16-8 0-8 15-8 23 0 8-8 15-15 15-8-7-8 0-16 8-7 0 0 8-7 15-8 0 0 0-8-7-8-8-8 7-8 15 0 0 16 8 0 8s-23-16-23-16c-8 0-8-7-8 0-15 16-15 8-23 8s-7-8-7 0 7 15 0 15c-8 0-16-15-16 0s16 16 16 24c-8 7-16-16-31-16-8 0-16 8-16 16 8 15 8 7 8 15 0 8 8 8 16 15 7 8 15-7 23 8 7 8 7 0 15 0s8-8 8-15c0-8 7 0 7 15 0 15 23 15 31 15s0 16 16 16c7-8 7 0 23 0 7 0 23-16 15 0-8 7 15-8 23-8 8 0 0 8 0 15 31-15 62-46 92-76 16-24 39-54 47-93 0-15 0-38 7-46 8-15 0-46 8-69 0-8 8-16 8-16v-7c0-93-23-169-70-239-46-69-100-100-169-100h-23c-8 0-15 8-23 8-8 0-15 0-15 8s15 15 15 23c0 7-15-8-15-16 0 0-8 8-16 0s-7-7-15-7c-8 0-8 15-16 7-30 16-53 54-76 100l-8 23h-108l16-30c30-77 69-131 123-170 53-38 107-61 169-61 100 0 177 46 238 131 62 84 100 192 100 323-7 61-15 123-38 169m2808 169h7v-15h8v15 0h-8c0 0 8 0 8 8v8 7c0 8 0 0 0 0h-8-23v-46h8c0-8 8 23 8 23z m0 31h15v-15h-15v15z m0-69c15 0 38 15 38 46 0 23-15 46-38 46-16 0-31-15-31-46s15-46 31-46m0 92c15 0 30-15 30-38s-15-39-30-39c-16 0-31 16-31 39s15 38 31 38" horiz-adv-x="4615" />

<glyph glyph-name="gewiss" unicode="&#xe814;" d="M4123 496v54h8l8 8h7l8 7-8-7 8 7h377v8l-16 23-7 16-16 15-30 23-16 15-15 16-16 15-15 16-15 15-23 8-16 15-15 15-23 8-16 16-23 7-38 0-23 8-16 8-23 7h-23l-23 8h-254l-7-8-8-7-8-8v-569l16 0 7-8v-8h362l0 0 8-7 7-8v-8 16-62h-7v-8h-8l0 0h-8 8-354l-8-7h-7l-8-8-8-8v-231l8-7 8-8 7-8h254l23 8h23l23 8 23 7 24 8 23 8 15 7 23 8 15 8 24 15 23 16 15 15 15 15 16 16 15 15 16 16 15 15 15 15 8 16 15 15 16 23 7 16 24 38 7 16 8 23 8 23 7 23 8 15v31l8 23v46l-8 23v23l-8 23-7 23-8 8-8 8h-423l-8 8-7 7h-8c23-15 23 0 23 0z m-815 62h454l7 7h0v239l0 0h-7l-8 8h-715v-8h-8v-577l8-8h453v-7l8-8v-8l8-7-8 7 8-7v-47l-8-7v-8h-8v-8h-7 7-453l-8-7h-8v-247h8v-7h715l8 7h15l8 8v600h-8l-7 8h-454l-8 8-8 7-7 8v46l7 8 8 7 8-7 0 0 0 0 0 0z m-1469 231l84-370 8-7h8v7l61 377v8l0 0h8v8h7-7 254l7-8 8-8v-7 15-8l62-377 7-7v7l93 362v15l7 8 8 8h8l7 7h-7-8 477l8-7 7-8 8-8v-7 7-231l-8-7h-7v-8h-8 8-277l-8-8h-8l-7-7-8-8-154-639-8-7v-8l-7-8h-8l-8-7h-7 7-215l-8 7h-8l-7 8-8 8v7-7 7l-77 362h-8l-76-362v-7l-8-8v-8h-8l-8-7h-7 7-238v7h-8v8l-7 8v7l-162 639v23h-8l23 8h0v0h-276l-8 7h-8v8-8 231l8 8h8l7 8h8-8 477l8-8h8l7-8h8v-7h8l-23 0z m861-901h231l8 8 7 8 8 7v554l-8 8h-7v0h-247l-7-8h-8v-577l8-7h7l8 7 0 0z m-2254 670h300v7h8l8 8v231l-8 0 0 0-8 8h-254l-23-8h-23l-23 0-23-8-23 0-23-7-15-16-24-8-23-7-23-16-15-7-23-16-16-7-15-23-23-8-15-23-8-16-15-15-16-15-15-23-16-24-7-15-8-23-8-23-7-23-8-16-8-23 0-23v-23l-7-23v-46l7-23v-23l8-23 0-23 8-23 7-23 8-16 8-23 7-15 16-23 15-16 16-15 15-23 15-16 16-15 15-15 15-16 16-15 15-8 16-15 23-16 15-7 39-8 15-8 23-8 23-7 23-8 23-8h23l23-7h254l8 7 8 8 7 8v561l-15 8h0v0h-246l-8 0-8-8v-307l0-8h-7l0-8h-62l0 8h-8v0h-7v377l7 8v0l8 7 8 8h8l7 8 0 0 0 0 0 0 0 0z m1139-431l0 0 0 0v15h-8l-8 8h-454v0h-7v69l7 8v0h454-7 7l8 8v0l8 7v216l0 7 7-7-7 7v8l-8 8h-454v0l-8 8v61l8 8 8 7h100-8 8v0h8l7 8v231-8 0l-7 8-8 0-8 8h-369l-8-8h0l0 0v-900 7-7l8-8h8l7-8h716-8 8v8h7v8l8 7-15 216z" horiz-adv-x="4615" />

<glyph glyph-name="khj" unicode="&#xe815;" d="M1408 612h-462l31 15h438c0 0-7-15-7-15z m-23-70h-562l31 16h531c7 0 0-16 0-16z m-16-69h-661l31 16h630l0-16z m62-61h-839l31 15h808v-15z m0-70h-962l31 16h931l0-16 0 0z m0-69h-946l-23 16h969c0 0 0-16 0-16z m0-69h-869l-16 15h893l-8-15 0 0z m0-62h-792l-16 16h808v-16z m0-69h-716l-15 16h731l0-16 0 0z m0-69h-631l-15 15h654l-8-15 0 0z m2292-62h-2846l-15 16h2861v-16z m-2292 739h-362l31 15h339l-8-15z m-216-739h231l16 62 184 108 108-170h269l-184 285 338 200h-292l-346-208 61 208h-231c0 0-154-485-154-485z m2270 154h207c16-38 54-54 93-46 69 8 92 62 107 100l93 285h230l-92-285c-46-131-154-192-384-200-147-15-270 23-254 146z m-1085-154h231l61 170c-7 0-15 7-15 7l38 116c8 7 8 7 16 7h8l53 177h-230l-162-477z m515 0h231l162 485h-231l-54-177c8 0 16-8 16-8l-39-115c-8-8-8-8-15-8h-8l-62-177z m-184 193h231l30 84h-230l-31-84z m1415 469c62 0 116-31 116-69s-54-70-116-70-115 31-115 70 46 69 115 69m316 200c-54 0-100-31-100-62s46-61 100-61 100 31 100 61-54 62-100 62m0 8c61 0 115-31 115-70s-54-69-115-69c-62 0-116 31-116 69-7 39 46 70 116 70z m-39-62h39c7 0 15 0 15 0s8 0 8 8c7 0 7 7 7 7 0 0-7 8-7 8s-8 0-16 0h-38c0 0-8-23-8-23z m-15-46v77h54c7 0 15 0 30 0 8 0 8 0 16-8 7 0 7-8 7-8 0-7-7-7-7-15-8 0-16-8-31-8 8 0 8 0 8 0l15-7 15-23h-15l-15 15c-8 8-8 8-16 8-7 7-7 7-7 7-8 0-8 0-8 0h-31v-30h-15v-8z m-354-816h-4015l276 870h1108l-69-39h-292l-100-61h292l-23-16h-300l-85-46h293l-31-15h-293l-84-54h292l-23-15h-300l-92-54h292l-31-16h-284l-93-53h293l-23-16h-300l-93-46h293l0-15 7 0h-300l62-54h292l16-16h-285l54-53h300l15-16h-292l61-54h300l16-15h-300l61-54h293l15-15h-292l61-54h300l16-16h-293l70-54h292l15-15h2916v-8z" horiz-adv-x="4615" />

<glyph glyph-name="philips" unicode="&#xe816;" d="M1585 789v-893h-246v346h-254v-346h-246v893h246v-354h254v354h246z m846-716v716h-246v-893h438l39 177c0 0-231 0-231 0z m-423 716h-246v-893h246v893z m992 0h-246v-893h246v893z m1200-231c0 46 39 77 115 77 77 0 162-16 216-39l-23 193c-69 15-123 23-223 23-200 0-331-85-331-270 0-307 377-246 377-392 0-61-39-85-123-85-77 0-200 31-277 77l31-207c69-31 177-39 253-39 200 0 370 77 370 293 0 284-385 230-385 369m-315-93c0-223-146-361-370-361h-84v-208h-246v893c84 7 200 15 292 15 254 0 408-85 408-339m-239 0c0 108-54 177-177 177h-38v-361h38c123-16 177 69 177 184m-2907 0c0-223-147-361-370-361h-84v-208h-246v893c84 7 200 15 292 15 254 0 408-85 408-339m-239 0c0 108-54 177-177 177h-46v-361h38c139-16 185 69 185 184" horiz-adv-x="4615" />

<glyph glyph-name="sassin" unicode="&#xe817;" d="M377 789h362v-377l-362 377z m-54 7c0 0-46-54 31-131l385-430c0 0 200-339-262-339 0 0 85 54-54 162l-323 354c8 0-246 430 223 384z m-277-531l339-369h-346l7 369z m2046 524h370v-377l-370 377z m-53 7c0 0-47-54 30-131l385-430c0 0 200-339-262-339 0 0 85 54-53 162l-316 361c0-7-254 423 216 377z m-277-531l338-369h-346l8 369z m-954-369h269l162 623 138-608h292l-230 893h-400l-231-908z m2538 900h308v-908h-315l7 908z m393-131v-777h300v216l-300 561z m53 131h316l461-885-330-7-447 892z m785-761v777h-300v-216l300-561z m-1692 761h369v-369l-369 369z m-46 8c0 0-47-54 30-131l385-431c0 0 200-338-262-338 0 0 85 54-53 161l-324 362c0 0-246 423 224 377z m-277-531l338-369h-346l8 369z" horiz-adv-x="4615" />

<glyph glyph-name="tornado" unicode="&#xe818;" d="M4115 596c0 0-261 54-438 85-177 31-177 31-177 54s92 46 192 54c100 7 354 23 354 23s-238-54-277-54c-38-8-61-16-54-31 8-15 54-15 70-15 15 0 377 15 446 7 77-7 177-23 200-30 31-8 46-24 31-47-23-23-47-23-39-30 0-16 69 7 85 7s46-7 54-23c15-23 30-61-16-92-46-31-92-46-238-46-146-8-308-8-339-8-30-8-23-15-15-15 8-8 231-23 300-16 77 8 108 16 131 8 23-15 38-31 15-69-15-31-54-62-108-62-53-7-53-7-46-23s23-23 16-46c-8-15-8-31-31-31-31-7-92 0-154-7-62-8-115-24-115-24s15-23 92-30c77-8 69 0 92-8 16-8 31-15 31-23 0-8-8-23-31-46-23-16-54-31-77-62s-46-61-54-77c0 0 8 62-38 100-46 31-77 31-115 54-31 16-54 85-54 85s-139-8-154 92c0 0 31 0 54 8 15 7 54 23 84 23 31-8 93 0 131 8 39 7 146 30 146 30l-223-30c0 0 54 30 54 115 8 85-46 146-115 154 38 7 246 38 330 38z m-3846-7h-230v38h592v-38h-246v-285h-116v285z m562-39h-154c-92 0-185-31-185-123s85-123 177-123h208c92 0 169 46 169 123 8 77-54 123-215 123z m38-215h-184c-70 0-77 54-77 92-8 38 23 92 69 92h169c77 0 93-77 93-92 0-15 0-92-70-92z m562 184v31h-154c-69 0-177-31-177-115v-131h115v138c0 77 62 85 70 85-8-8 146-8 146-8z m146 0v-215h-108v246h285c108 0 200-46 200-108v-146h-108v139c0 61-46 84-84 84-47 0-185 0-185 0z m992-92c0 77-69 123-223 123h-154c-92 0-184-31-184-123s84-123 177-123h384v123z m-115 15v-100h-262c-69 0-77 54-77 93-7 38 31 92 77 92h185c77-8 77-69 77-85z m738 147v53h-115v-92h-269c-93 0-177-38-177-123s92-123 184-123h154c162 0 223 54 223 123v162z m-200-254h-184c-54 0-77 54-77 92s15 92 77 92h261v-100c8-23 0-84-77-84z m608 215h-169c-100 0-200-31-200-123s92-123 192-123h231c108 0 185 46 185 123-8 77-70 131-239 123z m39-208h-200c-70 0-85 54-85 93-8 38 31 92 77 92h177c84 0 100-77 100-92 7-23 7-93-69-93z m-1593-107c0 7 0 7 8 7 8 8 8 8 8 8s7 0 7-8c8-7 8-7 8-7v-8c0 8 8 8 8 8 7 7 7 7 15 7h8c7 0 7-7 7-7 0 0 0 0 0 0s8-8 8-8l8 8c8 0 8 0 15 0s8 0 8 0c8 0 8-8 8-8s7-8 7-8c8-7 8-7 8-15v-46c0-8 0-8-8-8s-7-8-7-8-8 0-8 8c-8 8-8 8-8 15v47c0 7 0 7-7 7s-8 8-8 8h-8c-8 0-8-8-8-8l-7-7v-39c0-8 0-8-8-8 8 0 0-7-8-7s-7 0-7 7c0 8-8 8-8 8v39c0 7 0 7-8 7-7 8-7 8-7 8h15c-8 0-8-8-8-8l-7-7c0 0-8-8-8-8v-31c0-8 0-8-8-8 8-7 0-7 0-7-7 0-7 0-7 7 0 8-8 8-8 8 0 0 15 62 15 62z m223-46v-16c0-8 0-8-7-8 0-7-8-7-8-7-8 0-8 7-8 7s-7 8-7 8c-8-8-8-8-16-8h-15c-8 0-8 0-8 8-8 0-8 8-8 8-7 0-7 8-7 8-8 7-8 7-8 7 0 8 0 8 8 16l7 7c8 8 8 8 8 8s8 8 15 8l16-8h8c0 0 7 0 7 8l8 7v-7c0 0-8 7-8 7-7 8-7 8-7 8s-8-8-8-8c0 0 0-7 0-7l-8 0-8-8c-7 0-7 0-7 8l0 0c0 7 0 7 7 7l8 8c0 8 8 8 8 8 8 7 8 7 15 7h16c7 0 7-7 15-7l8-8c7-8 7-8 7-8v-30h-15v-23z m-23 15l0 0-15-8c-8 0-8-7-8-7-8-8-8-8-8-8 0-8 0-8 8-8s8-8 8-8 8 0 8 8c7 0 7 8 7 8l8 8c0 7 8 7 8 7s-16 8-16 8z m-7 69c7 0 7 8 0 0l7 8h8l8-8c0 0 0-8 7-8v-7c0-8-7-8-7-8l-16-8h-15-8c-8 0-8 8-8 8v15l8 8 16 0z m69-108c0 0 0 0-8 0h-8c0 0-7 0-7 8v0c0 0 0 8 7 8l16 23-8 31c0 0 0 7-8 7v0 0c0 0 0 8 8 8l8 8h7l8-8 8-15 15 15 8 8h8c0 0 7 0 7-8 8-8 8-8 8-8v-7c0 0 0-8-8-8l-15-23 15-23c0 0 0-8 8-8v-8c0 0 0-7-8-7-7 0-7 0-15 0-8 0-8 0-8 7-7 8-7 8-15 8l-16 16-7-24z m69 100c0 8 0 8 8 8s7 8 7 8 8 0 8-8 8-8 8-8c0-7 0-7-8-7-8-8-8-8-15-8s-8 0-8 8v7z m0-30c0 7 0 7 8 7 0 0 0 0 7 0s8 0 8-7c0 0 8 0 8 0v-62c0-8 0-8-8-8-8-7-8-7-8-7s-7 0-7 7c0 8-8 8-8 8v62z m38 0c0 7 0 7 8 7 8 8 8 8 8 8 8 0 8 0 8-8 7-7 7-7 7-7v-8c8 8 8 8 16 8 7 7 7 7 15 7h8c7 0 7-7 7-7 0 0 0 0 0 0 8-8 8-8 8-8l8 8c0 0 7 0 7 0 8 0 8 0 8-8 8 8 16 0 16 0 0 0 0 0 0-8 7-7 7-7 7-15v-46c0 0 0 0-7 0 0-8 0-8-8-8s-8 0-8 8-8 0-8 7v47c0 7 0 7-7 7-8 0-8 8-8 8h-8c-7 0-7-8-7-8l-8-7v-39c0-8 0-8-8-8-7-7-7-7-7-7s-8 0-8 7v47c0 7 0 7-8 7-7 0-7 8-7 8h-8c-8 0-8-8-8-8l-8-7c0 0-7-8-7-8v-31c0-8 0-8-8-8 8 8 0 8-8 8s-7 0-7 8-8 8-8 8v46l38 0 0 0z m239-46v-16c0-8 0-8-8-8h-7c-8 0-8 8-8 8-8 8-8 8-8 8 0-8-8-8-8-8-7-8-15-8-15-8s-8 0-8 8c-7 0-7 8-7 8-8 8-8 8-8 8-8 7-8 7-8 7 0 8 0 8 8 16l8 7c7 8 7 8 7 8 8 0 8 8 16 8l7-8h8c0 0 8 0 8 8l0 0v7c0 0-8 8-8 8-8 8-8 8-8 8-7 0-7 0-7-8-8 0-8-8-8-8l-8-7 0 0c0 0-7 0-7 7l-8 8c0 0 0 8 8 8l7 7c8 8 8 8 16 8 7 0-8-15 0-15h15c8 0 8-8 16-8l7-8c8-7 8-7 8-7s0-46 0-46z m-23 15l0 0-16-8c-7 0-7-7-7-7-8-8-8-8-8-8s0-8 8-8c7-8 7-8 7-8s8 0 8 8c8 0 8 8 8 8l8 8c0 7 7 7 7 7s-15 8-15 8z m92 31c0 7 0 7 8 7 8 8 8 8 8 8s7 0 7-8c8-7 8-7 8-7v-8c0 8 0 8 0 8s8 7 8 7l7 8c8 0 8 8 8 8s8 0 8-8c7-8 7-8 7-8v-7c0-8-7-8-7-8l-8-8h-8c-7 0-7-7-7-7-8-8-8-8-8-16v-23c0-8 0-8-8-8s-7-7-7-7c-8 0-8 0-8 7s-8 8-8 8c0 0 0 62 0 62z m85-31c0-8 7-8 7-15 8-8 8-8 16-8 8 0 8 0 8 8 7 0 7 7 7 7l0 0c0 0 0 8 0 8 8 0 8 0 8-8l8-7c0-8-8-8-8-8-8-8-8-8-8-8-7-8-7-8-15-8-8 0-8-7-16-7-7 0-15 0-15 7-8 8-8 8-15 8-8 8-8 8-8 16-8 7-8 7-8 15 0 8 0 15 8 15 8 16 8 16 8 23 7 8 7 8 15 8 8 8 15 8 15 8 8 0 16 0 16-8 15-8 15-8 23-8 8-7 8-7 8-15 7-8 7-8 7-15 0-8 0-8-7-8-8-8-8-8-8-8 0 8-46 8-46 8z m38 8c0 7 0 15 0 15-7 8-7 8-15 8-8 0-8-8-16-8-7-8-7-8-7-15 0 0 38 0 38 0z m39 15c0 8 0 8 7 15l8 8c8 8 8 8 8 8h31c7 0 7-8 7-8 8-8 8-8 8-8 8-7 8-7 8-7s0-8-8-8c-8-8-8-8-8-8s-7 0-7 8-8 8-8 8l0 0c-8 0-8 0-8 0s-15 0-15 0c-8 0-8-8-8-8 0-8 0-8 8-8 7 0 7-7 7-7l8-8c8 0 8-8 8-8l8-7 7-8c8-8 8-8 8-8s0-8-8-15l-7-8h-16c-8 0-8-8-15-8-8 0-8 0-16 8-7 0-7 8-15 8l-8 7c-7 8-7 8-7 8 0 8 0 8 7 8 8 8 8 8 8 8s8 0 8-8l7-8c0 0 8-8 8-8 8-7 8-7 8-7s7 0 7 7l8 8c0 0 0 8-8 8 8 15 8 23 8 23l-15 8c-8 0-8 7-8 7-8 0-8 8-8 8-7-8-7-8-7 0 0-15 0-15 0 0z m92 38c0 8 0 8 8 8 7 8 7 8 7 8s8 0 8-8c8-8 8-8 8-8 0-7 0-7-8-7-8-8-15-8-15-8-8 0-8 0-8 8 0 0 0 7 0 7z m0-30c0 7 0 7 8 7 7 8 7 8 7 8s8 0 8-8c8-7 8-7 8-7v-62c0-8 0-8-8-8 0-7 0-7-8-7-7 0-7 0-7 7 0 8-8 8-8 8v62z m38-8c0 8 0 8 8 15l8 8c8 8 8 8 8 8h30c8 0 8-8 8-8 8-8 8-8 8-8 7 0 7-7 7-7s0-8-7-8c-8-8-8-8-8-8-8 0-8 0-8 8-7 0-7 8-7 8l0 0c0 0-8 7-8 7-8 0-8 0-8-7-7 0-7-8-7-8 0-8 0-8 7-8 8 0 8-7 8-7l8-8c7 0 7-8 7-8l8-7 8-8c7-8 7-8 7-8s0-8-7-15l-8-8h-15c-8 0-8-8-16-8-7 0-7 0-15 8-8 0-8 8-16 8l-7 7c-8 8-8 8-8 8 0 8 0 8 8 8 7 8 7 8 7 8 8 0 8 0 8-8l8-8c0 0 8-8 8-8 7-7 7-7 7-7s8 0 8 7l8 8c0 0 0 8-8 8-8 0-8 8-8 8l-15 7c-8 0-8 8-8 8s-8 8-8 8c0 7 0 7 0 15 0-15 0-15 0 0l0 0z m100 0l0 0c-7 0-7 0-15 8-8 0-8 0-8 0s0 7 8 7c8 0 8 8 8 8h7v8c0 7 0 7 8 7 8 8 8 8 8 8 8 0 8 0 8-8 7-7 7-7 7-7v-16h8c8 0 8 0 8-7 7 0 7 0 7 0s0-8-7-8c-8 0-8 0-8 0h-8v-46c0-8 8-8 8-8h0c8 0 8 0 8-8l7-7c-7 0-15 0-23 0-7 0-15 7-15 7-8 0-8 8-8 16l-8 46 0 0 0 0z m70-23c0-8 7-8 7-15 8-8 8-8 16-8 7 0 7 0 7 8 8 0 8 7 8 7l8 8c0-8 0 0 0 0 8 0 8 0 8-8l7-7c0-8 0-8-7-8-8 8-8 0-8 0-8-8-8-8-16-8-7 0-7-8-15-8-8 0-15 0-15 8s-8 8-16 8c-7 8-7 8-7 15-8 8-8 8-8 16 0 7 0 15 8 15 0 8 0 8 7 15 8 8 8 8 16 8 7 8 7 8 15 8s15 0 15-8c8-8 16-8 16-8 8-7 8-7 15-15 8-8 8-8 8-15 0-8 0-8-8-8-7-8-7-8-7-8-8 8-54 8-54 8z m46 8c0 7-8 7-8 15-8 8-8 8-15 8s-8-8-16-8c-7-8-7-8-7-15h46z m38 23c0 7 0 7 8 7 8 8 8 8 8 8 7 0 7 0 7-8 0-7 0-7 0-7v-8l16 8c7 7 7 7 15 7 8 0 8 0 8-7 0 0 8 0 8 0l7-8c8-8 8-8 8-15v-47c0-7 0-7-8-7-7 0-7 0-7 0-8 0-8 0-8 7-8 8-8 16-8 16v31c0 7 0 7-8 15-7 0-7 0-7 0h-8c-8 0-8-8-8-8l-7-7c0-8-8-8-8-8v-31c0-8 0-8-8-8h-7c-8 0-8 0-8 8s-8 8-8 8l23 54 0 0 0 0z m93-31c0 8 0 15 7 15 8 8 8 8 8 16 0 0 8 7 15 7 8 8 16 8 16 8 7 0 7 0 15-8 8-7 8-7 8-7l8-8c7-8 7-8 7-8s0-7-7-7c-8-8-8-8-8-8h-8l-8 8-7 7-8 8-8 8h-7c-8 0-8 0-8-8 8-8 8-15 8-15-8-8-8-8-8-8s-8-8-8-15c0-8 8-16 8-16 8-8 8-8 15-8 8 0 8 0 8 8l8 8 7 8c8 7 8 7 8 7 8 0 8 0 8-7l8-8c0-8 0-8-8-8l-8-8c-8-7-8-7-8-7-7 0-15 0-15 0-8 0-15 0-23 0-8 7-8 7-15 7-8 8-8 8-8 16 8 15 8 15 8 23z m92 61c0 8 0 8 8 8 0 8 0 8 7 8 8 0 8 0 8-8 8-8 8-8 8-8 0-7 0-7-8-7-8-8-8-8-15-8-8 0-8 0-8 8 0 0 0 7 0 7z m0-30c0 7 0 7 8 7 0 0 0 0 7 0 8 0 8 0 8-7 8 0 8 0 8 0v-62c0-8 0-8-8-8 0-7 0-7-8-7-7 0-7 7-7 7-8 8-8 8-8 8v62z m123-46v-16c0-8 0-8-8-8h-7c-8 0-8 8-8 8-8 0-8 8-8 8-7-8-7-8-15-8s-16-8-16-8c-7 0-7 0-7 8-8 0-8 8-8 8-8 8-8 8-8 8-7 7-7 7-7 7 0 8 0 8 7 16l8 7c8 8 8 8 8 8 7 0 7 8 15 8l16-8h7c0 0 8 0 8 8l8 7v-15c0 0-8 8-8 8-8 7-8 7-8 7-7 0-7 0-7-7-8 0-8 0-8 0l-8-8-8-8c-7 0-7 0-7 8l0 8c0 7 0 7 7 7l8 8c8 8 8 8 8 8 8 0 8 0 15 0h16c7 0 7-8 15-8l8-8c0 0 0-7 0-7l-8-46 0 0z m-23 15c-8 0-8-8 0 0l-15-8c-8 0-8-7-8-7-8-8-8-8-8-8s0-8 8-8c8-8 8-8 8-8 7 0 7 0 7 8 8 0 8 8 8 8l8 8c0 7 7 7 7 7s-15 8-15 8z" horiz-adv-x="4615" />

<glyph glyph-name="weg" unicode="&#xe819;" d="M254 712v-516h238v408h231v-408h239v408h230v-515h-1169v723h3077v-100h-2846z m1661-308h-230v100h230v-100z m239-108v308h-708v-515h708v107h-477v100c0 0 477 0 477 0z m708-100h-231v308h231c0 0 0-308 0-308z m238-308v716h-715v-515h477v-101h-2839v-100l3077 0 0 0z" horiz-adv-x="3154" />
</font>
</defs>
</svg>
